<svg xmlns="http://www.w3.org/2000/svg" xmlns:xlink="http://www.w3.org/1999/xlink" width="240" height="269" viewBox="0 0 240 269">
  <defs>
    <clipPath id="clip-아트보드_2">
      <rect width="240" height="269"/>
    </clipPath>
  </defs>
  <g id="아트보드_2" data-name="아트보드 – 2" clip-path="url(#clip-아트보드_2)">
    <g id="ico_주문배송조회" transform="translate(438.828 -631.447)">
      <g id="그룹_3535" data-name="그룹 3535" transform="translate(-557.842 253.305)">
        <rect id="사각형_4834" data-name="사각형 4834" width="40" height="40" transform="translate(169.014 378.142)" fill="none"/>
        <rect id="사각형_22776" data-name="사각형 22776" width="32" height="32.001" transform="translate(173.015 382.143)" fill="none"/>
        <g id="그룹_15247" data-name="그룹 15247" transform="translate(175.015 387.109)">
          <ellipse id="타원_822" data-name="타원 822" cx="2.982" cy="2.982" rx="2.982" ry="2.982" transform="translate(3.579 16.7)" fill="none" stroke="#191919" stroke-linecap="round" stroke-linejoin="round" stroke-width="2"/>
          <ellipse id="타원_822-2" data-name="타원 822" cx="2.982" cy="2.982" rx="2.982" ry="2.982" transform="translate(19.578 16.7)" fill="none" stroke="#191919" stroke-linecap="round" stroke-linejoin="round" stroke-width="2"/>
          <path id="패스_10789" data-name="패스 10789" d="M-709.035-600.8h1.542A1.192,1.192,0,0,0-706.3-602v-16.7a1.193,1.193,0,0,0-1.193-1.193h-14.315A1.193,1.193,0,0,0-723-618.7v8.35" transform="translate(734.929 619.889)" fill="none" stroke="#191919" stroke-linecap="round" stroke-width="2"/>
          <path id="패스_10790" data-name="패스 10790" d="M-691.361-599.189H-693.8a1.2,1.2,0,0,1-1.2-1.193V-606.9a1.191,1.191,0,0,1,.536-.992l2.762-1.826a1.2,1.2,0,0,0,.449-.55l1.965-4.87a1.2,1.2,0,0,1,1.117-.75h5.1" transform="translate(695 618.275)" fill="none" stroke="#191919" stroke-linecap="round" stroke-width="2"/>
          <line id="선_288" data-name="선 288" x1="9.663" transform="translate(9.581 19.086)" fill="none" stroke="#191919" stroke-linecap="round" stroke-width="2"/>
        </g>
      </g>
    </g>
    <g id="로그인" transform="translate(-1350 -60)">
      <g id="ico_마이페이지" transform="translate(1646.156 -571.447)">
        <rect id="사각형_4463" data-name="사각형 4463" width="40" height="40" transform="translate(-296.156 631.447)" fill="none"/>
        <rect id="사각형_1402" data-name="사각형 1402" width="32" height="32" transform="translate(-292.156 635.447)" fill="none" opacity="0.3"/>
      </g>
      <g id="그룹_18945" data-name="그룹 18945" transform="translate(1875.265 -812.932)">
        <path id="패스_11345" data-name="패스 11345" d="M-513.265,900.162v1.924a1.928,1.928,0,0,0,2,1.846h16a1.928,1.928,0,0,0,2-1.846V881.778a1.927,1.927,0,0,0-2-1.846h-16a1.928,1.928,0,0,0-2,1.846V883.7" transform="translate(0 1)" fill="none" stroke="#191919" stroke-linecap="round" stroke-linejoin="round" stroke-width="2"/>
        <g id="그룹_18946" data-name="그룹 18946" transform="translate(-1)">
          <path id="패스_11346" data-name="패스 11346" d="M-505.738,888.018l4.945,4.945-5.132,5.132" fill="none" stroke="#191919" stroke-linecap="round" stroke-linejoin="round" stroke-width="2"/>
          <path id="패스_11347" data-name="패스 11347" d="M12.471,0H-3" transform="translate(-513.265 892.963)" fill="none" stroke="#191919" stroke-linecap="round" stroke-width="2"/>
        </g>
      </g>
    </g>
    <g id="찜" transform="translate(-32)">
      <g id="그룹_21173" data-name="그룹 21173">
        <path id="패스_11391" data-name="패스 11391" d="M95.419,2511.552l-10.407-10.066a6.528,6.528,0,0,1,0-9.447,7.074,7.074,0,0,1,9.765,0l.641.622.642-.622a7.073,7.073,0,0,1,9.765,0,6.527,6.527,0,0,1,0,9.447Z" transform="translate(106.51 -2480.584)" fill="none" stroke="#191919" stroke-linecap="round" stroke-linejoin="round" stroke-miterlimit="10" stroke-width="2"/>
      </g>
      <rect id="사각형_24188" data-name="사각형 24188" width="40" height="40" transform="translate(182)" fill="none"/>
    </g>
    <g id="장바구니">
      <g id="그룹_1876" data-name="그룹 1876" transform="translate(104.053 5.688)">
        <g id="그룹_18551" data-name="그룹 18551" transform="translate(5.946 1.311)">
          <g id="사각형_22247" data-name="사각형 22247" transform="translate(0 10.924)" fill="none" stroke="#191919" stroke-width="2">
            <path d="M1,0H19.389a1,1,0,0,1,1,1V9.292a6,6,0,0,1-6,6H1a1,1,0,0,1-1-1V1A1,1,0,0,1,1,0Z" stroke="none"/>
            <path d="M1-1H19.389a2,2,0,0,1,2,2V9.292a7,7,0,0,1-7,7H1a2,2,0,0,1-2-2V1A2,2,0,0,1,1-1Z" fill="none"/>
          </g>
          <g id="그룹_15291" data-name="그룹 15291" transform="translate(4.23)">
            <path id="패스_9684" data-name="패스 9684" d="M396.477,8.6V4.754a5.969,5.969,0,0,1,6-5.754,5.754,5.754,0,0,1,5.754,5.754V6.672" transform="translate(-396.477 1)" fill="none" stroke="#191919" stroke-linecap="round" stroke-linejoin="round" stroke-miterlimit="10" stroke-width="2"/>
          </g>
          <line id="선_305" data-name="선 305" y1="3.672" transform="translate(4.196 9.952)" fill="none" stroke="#191919" stroke-linecap="round" stroke-miterlimit="10" stroke-width="2"/>
        </g>
      </g>
      <rect id="사각형_24189" data-name="사각형 24189" width="40" height="40" transform="translate(100)" fill="none"/>
    </g>
    <g id="그룹_21174" data-name="그룹 21174" transform="translate(30)">
      <rect id="사각형_24190" data-name="사각형 24190" width="40" height="40" transform="translate(170)" fill="none"/>
      <g id="ico_search" transform="translate(178 8)">
        <rect id="사각형_21386" data-name="사각형 21386" width="24" height="24" fill="none"/>
        <circle id="타원_563" data-name="타원 563" cx="6.079" cy="6.079" r="6.079" transform="translate(5.107 5.107)" fill="none" stroke="#fff" stroke-miterlimit="10" stroke-width="2"/>
        <line id="선_269" data-name="선 269" x2="4.113" y2="4.113" transform="translate(15.702 15.703)" fill="none" stroke="#fff" stroke-linecap="round" stroke-miterlimit="10" stroke-width="2"/>
      </g>
    </g>
    <path id="패스_11392" data-name="패스 11392" d="M6895.284,563.327a1,1,0,0,1-.707-.293l-5.327-5.327a1,1,0,0,1,1.414-1.414l4.62,4.62,4.62-4.62a1,1,0,0,1,1.414,1.414l-5.327,5.327A1,1,0,0,1,6895.284,563.327Z" transform="translate(-546 6941.611) rotate(-90)" fill="#191919"/>
    <g id="찜-2" data-name="찜" transform="translate(-32)">
      <g id="그룹_21173-2" data-name="그룹 21173">
        <rect id="사각형_24191" data-name="사각형 24191" width="40" height="40" transform="translate(182)" fill="none"/>
        <path id="패스_11391-2" data-name="패스 11391" d="M95.419,2511.552l-10.407-10.066a6.528,6.528,0,0,1,0-9.447,7.074,7.074,0,0,1,9.765,0l.641.622.642-.622a7.073,7.073,0,0,1,9.765,0,6.527,6.527,0,0,1,0,9.447Z" transform="translate(106.51 -2480.584)" fill="none" stroke="#191919" stroke-linecap="round" stroke-linejoin="round" stroke-miterlimit="10" stroke-width="2"/>
      </g>
    </g>
    <g id="찜-3" data-name="찜" transform="translate(-32 40)">
      <g id="그룹_21173-3" data-name="그룹 21173">
        <rect id="사각형_24191-2" data-name="사각형 24191" width="40" height="40" transform="translate(182)" fill="none"/>
        <path id="패스_11391-3" data-name="패스 11391" d="M95.419,2511.552l-10.407-10.066a6.528,6.528,0,0,1,0-9.447,7.074,7.074,0,0,1,9.765,0l.641.622.642-.622a7.073,7.073,0,0,1,9.765,0,6.527,6.527,0,0,1,0,9.447Z" transform="translate(106.51 -2480.584)" fill="#ed1c24" stroke="#ed1c24" stroke-linecap="round" stroke-linejoin="round" stroke-miterlimit="10" stroke-width="2"/>
      </g>
    </g>
    <g id="찜-4" data-name="찜" transform="translate(-152 40)">
      <g id="그룹_21173-4" data-name="그룹 21173" transform="translate(186.257 5.392)">
        <path id="패스_11391-4" data-name="패스 11391" d="M90.044,2502.268l-5.906-5.712a3.7,3.7,0,0,1,0-5.361,4.015,4.015,0,0,1,5.542,0l.364.353.364-.353a4.014,4.014,0,0,1,5.542,0,3.7,3.7,0,0,1,0,5.361Z" transform="translate(-82.991 -2490.085)" fill="none" stroke="#191919" stroke-linecap="round" stroke-linejoin="round" stroke-miterlimit="10" stroke-width="2"/>
      </g>
      <rect id="사각형_24188-2" data-name="사각형 24188" width="23" height="23" transform="translate(182)" fill="none"/>
    </g>
    <g id="찜-5" data-name="찜" transform="translate(-122 40)">
      <g id="그룹_21173-5" data-name="그룹 21173" transform="translate(186.257 5.392)">
        <path id="패스_11391-5" data-name="패스 11391" d="M90.044,2502.268l-5.906-5.712a3.7,3.7,0,0,1,0-5.361,4.015,4.015,0,0,1,5.542,0l.364.353.364-.353a4.014,4.014,0,0,1,5.542,0,3.7,3.7,0,0,1,0,5.361Z" transform="translate(-82.991 -2490.085)" fill="#ed1c24" stroke="#ed1c24" stroke-linecap="round" stroke-linejoin="round" stroke-miterlimit="10" stroke-width="2"/>
      </g>
      <rect id="사각형_24188-3" data-name="사각형 24188" width="23" height="23" transform="translate(182)" fill="none" stroke="rgba(0,0,0,0)" stroke-width="1"/>
    </g>
    <g id="공유하기" transform="translate(-138 57)">
      <rect id="사각형_24188-4" data-name="사각형 24188" width="40" height="40" transform="translate(138 13)" fill="none"/>
      <g id="그룹_21175" data-name="그룹 21175" transform="translate(145 20)">
        <g id="그룹_14284" data-name="그룹 14284" transform="translate(0 0)">
          <line id="선_121" data-name="선 121" y1="5.196" x2="10.393" transform="translate(7.334 5.695)" fill="none" stroke="#191919" stroke-miterlimit="10" stroke-width="2"/>
          <line id="선_122" data-name="선 122" x1="10.358" y1="5.179" transform="translate(7.368 14.221)" fill="none" stroke="#191919" stroke-miterlimit="10" stroke-width="2"/>
          <circle id="타원_80" data-name="타원 80" cx="4.07" cy="4.07" r="4.07" transform="translate(16.955)" fill="none" stroke="#191919" stroke-miterlimit="10" stroke-width="2"/>
          <circle id="타원_81" data-name="타원 81" cx="4.07" cy="4.07" r="4.07" transform="translate(16.955 16.955)" fill="none" stroke="#191919" stroke-miterlimit="10" stroke-width="2"/>
          <circle id="타원_82" data-name="타원 82" cx="4.07" cy="4.07" r="4.07" transform="translate(0 8.478)" fill="none" stroke="#191919" stroke-miterlimit="10" stroke-width="2"/>
        </g>
      </g>
    </g>
    <g id="그룹_21177" data-name="그룹 21177" transform="translate(30)">
      <rect id="사각형_24192" data-name="사각형 24192" width="64" height="96" transform="translate(114 216) rotate(180)" fill="#fff" opacity="0.7"/>
      <path id="패스_11392-2" data-name="패스 11392" d="M14,0,0,14,14,28" transform="translate(91.5 182.501) rotate(180)" fill="none" stroke="#000" stroke-linecap="round" stroke-width="2"/>
    </g>
    <g id="그룹_21176" data-name="그룹 21176">
      <rect id="사각형_24193" data-name="사각형 24193" width="64" height="96" transform="translate(0 120)" fill="#fff" opacity="0.7"/>
      <path id="패스_11393" data-name="패스 11393" d="M14,28,0,14,14,0" transform="translate(23.5 154.499)" fill="none" stroke="#000" stroke-linecap="round" stroke-width="2"/>
    </g>
    <g id="그룹_21178" data-name="그룹 21178" transform="translate(-1125 -2495.35)">
      <g id="_" data-name="&lt;" transform="translate(1174 2566)">
        <path id="패스_82" data-name="패스 82" d="M10,20.092a1,1,0,0,1-.69-.277l-10-9.546A1,1,0,0,1-1,9.546a1,1,0,0,1,.309-.723l10-9.546a1,1,0,0,1,1.414.033A1,1,0,0,1,10.691.723L1.448,9.546l9.242,8.823A1,1,0,0,1,10,20.092Z" transform="translate(2 0.35)" fill="#505050"/>
      </g>
      <g id="_2" data-name="&lt;" transform="translate(1290 2566)">
        <path id="패스_82-2" data-name="패스 82" d="M0,20.092a1,1,0,0,1-.723-.309A1,1,0,0,1-.69,18.369L8.552,9.546-.69.723A1,1,0,0,1-.723-.691,1,1,0,0,1,.691-.723l10,9.546a1,1,0,0,1,0,1.447l-10,9.546A1,1,0,0,1,0,20.092Z" transform="translate(-94 0.35)" fill="#505050"/>
      </g>
    </g>
    <g id="그룹_21218" data-name="그룹 21218">
      <path id="패스_11394" data-name="패스 11394" d="M85.762,22.569,83.1,24.732l.882,3.315a.181.181,0,0,1-.273.2l-2.88-1.863-2.88,1.863a.181.181,0,0,1-.273-.2l.882-3.315L75.9,22.569a.181.181,0,0,1,.1-.321l3.426-.186,1.235-3.2a.181.181,0,0,1,.337,0l1.235,3.2,3.426.186a.181.181,0,0,1,.1.321Z" transform="translate(-75.828 201.254)" fill="#ffc400"/>
      <path id="패스_11403" data-name="패스 11403" d="M85.762,22.569,83.1,24.732l.882,3.315a.181.181,0,0,1-.273.2l-2.88-1.863-2.88,1.863a.181.181,0,0,1-.273-.2l.882-3.315L75.9,22.569a.181.181,0,0,1,.1-.321l3.426-.186,1.235-3.2a.181.181,0,0,1,.337,0l1.235,3.2,3.426.186a.181.181,0,0,1,.1.321Z" transform="translate(-75.828 221.254)" fill="#ffc427"/>
      <path id="패스_11408" data-name="패스 11408" d="M85.762,22.569,83.1,24.732l.882,3.315a.181.181,0,0,1-.273.2l-2.88-1.863-2.88,1.863a.181.181,0,0,1-.273-.2l.882-3.315L75.9,22.569a.181.181,0,0,1,.1-.321l3.426-.186,1.235-3.2a.181.181,0,0,1,.337,0l1.235,3.2,3.426.186a.181.181,0,0,1,.1.321Z" transform="translate(-15.828 201.254)" fill="#ffc427"/>
      <path id="패스_11413" data-name="패스 11413" d="M85.762,22.569,83.1,24.732l.882,3.315a.181.181,0,0,1-.273.2l-2.88-1.863-2.88,1.863a.181.181,0,0,1-.273-.2l.882-3.315L75.9,22.569a.181.181,0,0,1,.1-.321l3.426-.186,1.235-3.2a.181.181,0,0,1,.337,0l1.235,3.2,3.426.186a.181.181,0,0,1,.1.321Z" transform="translate(-15.828 221.254)" fill="#ffc427"/>
      <path id="패스_11418" data-name="패스 11418" d="M85.762,22.569,83.1,24.732l.882,3.315a.181.181,0,0,1-.273.2l-2.88-1.863-2.88,1.863a.181.181,0,0,1-.273-.2l.882-3.315L75.9,22.569a.181.181,0,0,1,.1-.321l3.426-.186,1.235-3.2a.181.181,0,0,1,.337,0l1.235,3.2,3.426.186a.181.181,0,0,1,.1.321Z" transform="translate(44.172 201.254)" fill="#ffc427"/>
      <path id="패스_11423" data-name="패스 11423" d="M85.762,22.569,83.1,24.732l.882,3.315a.181.181,0,0,1-.273.2l-2.88-1.863-2.88,1.863a.181.181,0,0,1-.273-.2l.882-3.315L75.9,22.569a.181.181,0,0,1,.1-.321l3.426-.186,1.235-3.2a.181.181,0,0,1,.337,0l1.235,3.2,3.426.186a.181.181,0,0,1,.1.321Z" transform="translate(44.172 221.254)" fill="#d1d1d1"/>
      <path id="패스_11395" data-name="패스 11395" d="M85.762,22.569,83.1,24.732l.882,3.315a.181.181,0,0,1-.273.2l-2.88-1.863-2.88,1.863a.181.181,0,0,1-.273-.2l.882-3.315L75.9,22.569a.181.181,0,0,1,.1-.321l3.426-.186,1.235-3.2a.181.181,0,0,1,.337,0l1.235,3.2,3.426.186a.181.181,0,0,1,.1.321Z" transform="translate(-64.828 201.254)" fill="#ffc400"/>
      <path id="패스_11402" data-name="패스 11402" d="M85.762,22.569,83.1,24.732l.882,3.315a.181.181,0,0,1-.273.2l-2.88-1.863-2.88,1.863a.181.181,0,0,1-.273-.2l.882-3.315L75.9,22.569a.181.181,0,0,1,.1-.321l3.426-.186,1.235-3.2a.181.181,0,0,1,.337,0l1.235,3.2,3.426.186a.181.181,0,0,1,.1.321Z" transform="translate(-64.828 221.254)" fill="#ffc427"/>
      <path id="패스_11407" data-name="패스 11407" d="M85.762,22.569,83.1,24.732l.882,3.315a.181.181,0,0,1-.273.2l-2.88-1.863-2.88,1.863a.181.181,0,0,1-.273-.2l.882-3.315L75.9,22.569a.181.181,0,0,1,.1-.321l3.426-.186,1.235-3.2a.181.181,0,0,1,.337,0l1.235,3.2,3.426.186a.181.181,0,0,1,.1.321Z" transform="translate(-4.828 201.254)" fill="#ffc427"/>
      <path id="패스_11412" data-name="패스 11412" d="M85.762,22.569,83.1,24.732l.882,3.315a.181.181,0,0,1-.273.2l-2.88-1.863-2.88,1.863a.181.181,0,0,1-.273-.2l.882-3.315L75.9,22.569a.181.181,0,0,1,.1-.321l3.426-.186,1.235-3.2a.181.181,0,0,1,.337,0l1.235,3.2,3.426.186a.181.181,0,0,1,.1.321Z" transform="translate(-4.828 221.254)" fill="#ffc427"/>
      <path id="패스_11417" data-name="패스 11417" d="M85.762,22.569,83.1,24.732l.882,3.315a.181.181,0,0,1-.273.2l-2.88-1.863-2.88,1.863a.181.181,0,0,1-.273-.2l.882-3.315L75.9,22.569a.181.181,0,0,1,.1-.321l3.426-.186,1.235-3.2a.181.181,0,0,1,.337,0l1.235,3.2,3.426.186a.181.181,0,0,1,.1.321Z" transform="translate(55.172 201.254)" fill="#d1d1d1"/>
      <path id="패스_11421" data-name="패스 11421" d="M85.762,22.569,83.1,24.732l.882,3.315a.181.181,0,0,1-.273.2l-2.88-1.863-2.88,1.863a.181.181,0,0,1-.273-.2l.882-3.315L75.9,22.569a.181.181,0,0,1,.1-.321l3.426-.186,1.235-3.2a.181.181,0,0,1,.337,0l1.235,3.2,3.426.186a.181.181,0,0,1,.1.321Z" transform="translate(55.172 221.254)" fill="#d1d1d1"/>
      <path id="패스_11396" data-name="패스 11396" d="M85.762,22.569,83.1,24.732l.882,3.315a.181.181,0,0,1-.273.2l-2.88-1.863-2.88,1.863a.181.181,0,0,1-.273-.2l.882-3.315L75.9,22.569a.181.181,0,0,1,.1-.321l3.426-.186,1.235-3.2a.181.181,0,0,1,.337,0l1.235,3.2,3.426.186a.181.181,0,0,1,.1.321Z" transform="translate(-53.828 201.254)" fill="#ffc400"/>
      <path id="패스_11401" data-name="패스 11401" d="M85.762,22.569,83.1,24.732l.882,3.315a.181.181,0,0,1-.273.2l-2.88-1.863-2.88,1.863a.181.181,0,0,1-.273-.2l.882-3.315L75.9,22.569a.181.181,0,0,1,.1-.321l3.426-.186,1.235-3.2a.181.181,0,0,1,.337,0l1.235,3.2,3.426.186a.181.181,0,0,1,.1.321Z" transform="translate(-53.828 221.254)" fill="#ffc427"/>
      <path id="패스_11405" data-name="패스 11405" d="M85.762,22.569,83.1,24.732l.882,3.315a.181.181,0,0,1-.273.2l-2.88-1.863-2.88,1.863a.181.181,0,0,1-.273-.2l.882-3.315L75.9,22.569a.181.181,0,0,1,.1-.321l3.426-.186,1.235-3.2a.181.181,0,0,1,.337,0l1.235,3.2,3.426.186a.181.181,0,0,1,.1.321Z" transform="translate(6.172 201.254)" fill="#ffc427"/>
      <path id="패스_11411" data-name="패스 11411" d="M85.762,22.569,83.1,24.732l.882,3.315a.181.181,0,0,1-.273.2l-2.88-1.863-2.88,1.863a.181.181,0,0,1-.273-.2l.882-3.315L75.9,22.569a.181.181,0,0,1,.1-.321l3.426-.186,1.235-3.2a.181.181,0,0,1,.337,0l1.235,3.2,3.426.186a.181.181,0,0,1,.1.321Z" transform="translate(6.172 221.254)" fill="#d1d1d1"/>
      <path id="패스_11414" data-name="패스 11414" d="M85.762,22.569,83.1,24.732l.882,3.315a.181.181,0,0,1-.273.2l-2.88-1.863-2.88,1.863a.181.181,0,0,1-.273-.2l.882-3.315L75.9,22.569a.181.181,0,0,1,.1-.321l3.426-.186,1.235-3.2a.181.181,0,0,1,.337,0l1.235,3.2,3.426.186a.181.181,0,0,1,.1.321Z" transform="translate(66.172 201.254)" fill="#d1d1d1"/>
      <path id="패스_11422" data-name="패스 11422" d="M85.762,22.569,83.1,24.732l.882,3.315a.181.181,0,0,1-.273.2l-2.88-1.863-2.88,1.863a.181.181,0,0,1-.273-.2l.882-3.315L75.9,22.569a.181.181,0,0,1,.1-.321l3.426-.186,1.235-3.2a.181.181,0,0,1,.337,0l1.235,3.2,3.426.186a.181.181,0,0,1,.1.321Z" transform="translate(66.172 221.254)" fill="#d1d1d1"/>
      <path id="패스_11397" data-name="패스 11397" d="M85.762,22.569,83.1,24.732l.882,3.315a.181.181,0,0,1-.273.2l-2.88-1.863-2.88,1.863a.181.181,0,0,1-.273-.2l.882-3.315L75.9,22.569a.181.181,0,0,1,.1-.321l3.426-.186,1.235-3.2a.181.181,0,0,1,.337,0l1.235,3.2,3.426.186a.181.181,0,0,1,.1.321Z" transform="translate(-42.828 201.254)" fill="#ffc400"/>
      <path id="패스_11400" data-name="패스 11400" d="M85.762,22.569,83.1,24.732l.882,3.315a.181.181,0,0,1-.273.2l-2.88-1.863-2.88,1.863a.181.181,0,0,1-.273-.2l.882-3.315L75.9,22.569a.181.181,0,0,1,.1-.321l3.426-.186,1.235-3.2a.181.181,0,0,1,.337,0l1.235,3.2,3.426.186a.181.181,0,0,1,.1.321Z" transform="translate(-42.828 221.254)" fill="#ffc427"/>
      <path id="패스_11406" data-name="패스 11406" d="M85.762,22.569,83.1,24.732l.882,3.315a.181.181,0,0,1-.273.2l-2.88-1.863-2.88,1.863a.181.181,0,0,1-.273-.2l.882-3.315L75.9,22.569a.181.181,0,0,1,.1-.321l3.426-.186,1.235-3.2a.181.181,0,0,1,.337,0l1.235,3.2,3.426.186a.181.181,0,0,1,.1.321Z" transform="translate(17.172 201.254)" fill="#d1d1d1"/>
      <path id="패스_11409" data-name="패스 11409" d="M85.762,22.569,83.1,24.732l.882,3.315a.181.181,0,0,1-.273.2l-2.88-1.863-2.88,1.863a.181.181,0,0,1-.273-.2l.882-3.315L75.9,22.569a.181.181,0,0,1,.1-.321l3.426-.186,1.235-3.2a.181.181,0,0,1,.337,0l1.235,3.2,3.426.186a.181.181,0,0,1,.1.321Z" transform="translate(17.172 221.254)" fill="#d1d1d1"/>
      <path id="패스_11415" data-name="패스 11415" d="M85.762,22.569,83.1,24.732l.882,3.315a.181.181,0,0,1-.273.2l-2.88-1.863-2.88,1.863a.181.181,0,0,1-.273-.2l.882-3.315L75.9,22.569a.181.181,0,0,1,.1-.321l3.426-.186,1.235-3.2a.181.181,0,0,1,.337,0l1.235,3.2,3.426.186a.181.181,0,0,1,.1.321Z" transform="translate(77.172 201.254)" fill="#d1d1d1"/>
      <path id="패스_11419" data-name="패스 11419" d="M85.762,22.569,83.1,24.732l.882,3.315a.181.181,0,0,1-.273.2l-2.88-1.863-2.88,1.863a.181.181,0,0,1-.273-.2l.882-3.315L75.9,22.569a.181.181,0,0,1,.1-.321l3.426-.186,1.235-3.2a.181.181,0,0,1,.337,0l1.235,3.2,3.426.186a.181.181,0,0,1,.1.321Z" transform="translate(77.172 221.254)" fill="#d1d1d1"/>
      <path id="패스_11398" data-name="패스 11398" d="M85.762,22.569,83.1,24.732l.882,3.315a.181.181,0,0,1-.273.2l-2.88-1.863-2.88,1.863a.181.181,0,0,1-.273-.2l.882-3.315L75.9,22.569a.181.181,0,0,1,.1-.321l3.426-.186,1.235-3.2a.181.181,0,0,1,.337,0l1.235,3.2,3.426.186a.181.181,0,0,1,.1.321Z" transform="translate(-31.828 201.254)" fill="#ffc400"/>
      <path id="패스_11399" data-name="패스 11399" d="M85.762,22.569,83.1,24.732l.882,3.315a.181.181,0,0,1-.273.2l-2.88-1.863-2.88,1.863a.181.181,0,0,1-.273-.2l.882-3.315L75.9,22.569a.181.181,0,0,1,.1-.321l3.426-.186,1.235-3.2a.181.181,0,0,1,.337,0l1.235,3.2,3.426.186a.181.181,0,0,1,.1.321Z" transform="translate(-31.828 221.254)" fill="#d1d1d1"/>
      <path id="패스_11404" data-name="패스 11404" d="M85.762,22.569,83.1,24.732l.882,3.315a.181.181,0,0,1-.273.2l-2.88-1.863-2.88,1.863a.181.181,0,0,1-.273-.2l.882-3.315L75.9,22.569a.181.181,0,0,1,.1-.321l3.426-.186,1.235-3.2a.181.181,0,0,1,.337,0l1.235,3.2,3.426.186a.181.181,0,0,1,.1.321Z" transform="translate(28.172 201.254)" fill="#d1d1d1"/>
      <path id="패스_11410" data-name="패스 11410" d="M85.762,22.569,83.1,24.732l.882,3.315a.181.181,0,0,1-.273.2l-2.88-1.863-2.88,1.863a.181.181,0,0,1-.273-.2l.882-3.315L75.9,22.569a.181.181,0,0,1,.1-.321l3.426-.186,1.235-3.2a.181.181,0,0,1,.337,0l1.235,3.2,3.426.186a.181.181,0,0,1,.1.321Z" transform="translate(28.172 221.254)" fill="#d1d1d1"/>
      <path id="패스_11416" data-name="패스 11416" d="M85.762,22.569,83.1,24.732l.882,3.315a.181.181,0,0,1-.273.2l-2.88-1.863-2.88,1.863a.181.181,0,0,1-.273-.2l.882-3.315L75.9,22.569a.181.181,0,0,1,.1-.321l3.426-.186,1.235-3.2a.181.181,0,0,1,.337,0l1.235,3.2,3.426.186a.181.181,0,0,1,.1.321Z" transform="translate(88.172 201.254)" fill="#d1d1d1"/>
      <path id="패스_11420" data-name="패스 11420" d="M85.762,22.569,83.1,24.732l.882,3.315a.181.181,0,0,1-.273.2l-2.88-1.863-2.88,1.863a.181.181,0,0,1-.273-.2l.882-3.315L75.9,22.569a.181.181,0,0,1,.1-.321l3.426-.186,1.235-3.2a.181.181,0,0,1,.337,0l1.235,3.2,3.426.186a.181.181,0,0,1,.1.321Z" transform="translate(88.172 221.254)" fill="#d1d1d1"/>
    </g>
    <g id="그룹_21221" data-name="그룹 21221">
      <g id="사각형_24194" data-name="사각형 24194" transform="translate(100 60)" fill="#fff" stroke="#dedede" stroke-width="1">
        <rect width="20" height="20" stroke="none"/>
        <rect x="0.5" y="0.5" width="19" height="19" fill="none"/>
      </g>
    </g>
    <g id="그룹_21222" data-name="그룹 21222">
      <rect id="사각형_24196" data-name="사각형 24196" width="20" height="20" transform="translate(100 90)" fill="#ffeb2c"/>
      <path id="제외_1" data-name="제외 1" d="M-16145.391,23497.854v0l-4.417-4.422,1.156-1.156,3.262,3.262,6.105-6.1,1.162,1.16-7.267,7.26Z" transform="translate(16253.965 -23394)" fill="#272727"/>
    </g>
    <g id="그룹_21223" data-name="그룹 21223">
      <path id="패스_11425" data-name="패스 11425" d="M16306.293-23370.293l-23-23,1.414-1.414,23,23Z" transform="translate(-16083.293 23444.707)" fill="#222"/>
      <path id="패스_11426" data-name="패스 11426" d="M16284.707-23370.293l-1.414-1.414,23-23,1.414,1.414Z" transform="translate(-16083.293 23444.707)" fill="#222"/>
    </g>
    <g id="그룹_21228" data-name="그룹 21228" transform="translate(-30 140)">
      <path id="패스_11425-2" data-name="패스 11425" d="M16297.425-23379.707l-14.132-14.133.868-.867,14.132,14.133Z" transform="translate(-16083.293 23444.707)" fill="#222"/>
      <path id="패스_11426-2" data-name="패스 11426" d="M16284.161-23379.707l-.868-.867,14.132-14.133.868.867Z" transform="translate(-16083.293 23444.707)" fill="#222"/>
    </g>
    <g id="그룹_21224" data-name="그룹 21224" transform="translate(60 30)">
      <g id="사각형_24194-2" data-name="사각형 24194" transform="translate(100 60)" fill="#fff" stroke="#dedede" stroke-width="1">
        <rect width="36" height="36" stroke="none"/>
        <rect x="0.5" y="0.5" width="35" height="35" fill="none"/>
      </g>
      <path id="패스_11425-3" data-name="패스 11425" d="M111.907,75.945H124.7" transform="translate(-0.408 2.555)" fill="none" stroke="#022" stroke-width="1"/>
    </g>
    <g id="그룹_21226" data-name="그룹 21226">
      <g id="그룹_21225" data-name="그룹 21225" transform="translate(60 80)">
        <g id="사각형_24194-3" data-name="사각형 24194" transform="translate(100 60)" fill="#fff" stroke="#dedede" stroke-width="1">
          <rect width="36" height="36" stroke="none"/>
          <rect x="0.5" y="0.5" width="35" height="35" fill="none"/>
        </g>
      </g>
      <g id="그룹_21227" data-name="그룹 21227" transform="translate(0.5 -0.501)">
        <path id="패스_11426-3" data-name="패스 11426" d="M111.907,75.945H124.7" transform="translate(59.592 82.555)" fill="none" stroke="#022" stroke-width="1"/>
        <path id="패스_11427" data-name="패스 11427" d="M111.907,75.945H124.7" transform="translate(253.84 40.592) rotate(90)" fill="none" stroke="#022" stroke-width="1"/>
      </g>
    </g>
  </g>
</svg>
